<?xml version="1.0" encoding="UTF-8"?>
<svg width="154px" height="24px" viewBox="0 0 154 24" version="1.1" xmlns="http://www.w3.org/2000/svg" xmlns:xlink="http://www.w3.org/1999/xlink">
    <title>E4875F67-E7CF-4DAA-A2A7-65308E8F09DD@1x</title>
    <g id="Symbols" stroke="none" stroke-width="1" fill="none" fill-rule="evenodd">
        <g id="montro-logotype-black" fill="#000000" fill-rule="nonzero">
            <path d="M4.66,22.5 L4.66,7.5 L4.87,7.5 L12.67,21.09 L12.97,21.09 L20.83,7.5 L21.04,7.5 L21.04,22.5 L24.85,22.5 L24.85,1.5 L20.2,1.5 L12.91,14.49 L5.47,1.5 L0.91,1.5 L0.91,22.5 L4.66,22.5 Z M41.65,23.01 C48.7,23.01 53.14,18.66 53.14,12 C53.14,5.31 48.7,0.99 41.65,0.99 C34.6,0.99 30.13,5.34 30.13,12 C30.13,18.69 34.6,23.01 41.65,23.01 Z M41.62,19.53 C36.85,19.53 34.09,16.65 34.09,12 C34.09,7.35 36.91,4.47 41.68,4.47 C46.45,4.47 49.21,7.35 49.21,12 C49.21,16.65 46.39,19.53 41.62,19.53 Z M62.17,22.5 L62.17,6.9 L62.38,6.9 L74.11,22.5 L78.25,22.5 L78.25,1.5 L74.5,1.5 L74.5,16.71 L74.32,16.71 L62.83,1.5 L58.45,1.5 L58.45,22.5 L62.17,22.5 Z M94.66,22.5 L94.66,5.04 L102.67,5.04 L102.52,1.5 L82.96,1.5 L82.81,5.04 L90.82,5.04 L90.82,22.5 L94.66,22.5 Z M111.07,22.5 L111.07,15.9 L117.4,15.9 L122.26,22.5 L126.79,22.5 L121.21,15.21 C124.36,14.34 126.01,12 126.01,8.55 C126.01,4.02 123.43,1.5 118.18,1.5 L107.23,1.5 L107.23,22.5 L111.07,22.5 Z M141.604993,1 C148.65193,1 153.09,5.31607629 153.09,12 C153.09,18.653951 148.65193,23 141.604993,23 C134.558057,23 130.09,18.6839237 130.09,12 C130.09,5.34604905 134.558057,1 141.604993,1 Z M147.510122,6.85084224 L141.709948,16.8750418 L141.410078,16.8750418 L135.682632,6.90212895 C134.619508,8.1756052 134.048279,9.90861897 134.048279,12 C134.048279,16.6457766 136.80708,19.5231608 141.575007,19.5231608 C146.342934,19.5231608 149.161708,16.6457766 149.161708,12 C149.161708,9.8804061 148.587447,8.12891347 147.510122,6.85084224 Z M118.06,4.98 C121.03,4.98 122.11,6.57 122.11,8.73 C122.11,10.86 121.03,12.51 118.06,12.51 L111.07,12.51 L111.07,4.98 L118.06,4.98 Z M141.63498,4.47683924 C140.507616,4.47683924 139.489224,4.63770639 138.591299,4.94478075 L141.649974,10.2810364 L144.650193,4.93793467 C143.762238,4.63531585 142.753937,4.47683924 141.63498,4.47683924 Z" id="MONTRO"></path>
        </g>
    </g>
</svg>
