<?xml version="1.0" encoding="UTF-8"?>
<svg width="159px" height="28px" viewBox="0 0 159 28" version="1.1" xmlns="http://www.w3.org/2000/svg" xmlns:xlink="http://www.w3.org/1999/xlink">
    <title>montro-logotype-black</title>
    <g id="montro-logotype-black" stroke="none" stroke-width="1" fill="none" fill-rule="evenodd">
        <g id="Group-2">
            <g transform="translate(4.000000, 3.000000)">
                <path d="M3.72378456,21.4904632 L3.72378456,6.50408719 L3.93231649,6.50408719 L11.6777884,20.0817439 L11.9756911,20.0817439 L19.7807436,6.50408719 L19.9892755,6.50408719 L19.9892755,21.4904632 L23.7726406,21.4904632 L23.7726406,0.509536785 L19.1551478,0.509536785 L11.9161106,13.4877384 L4.52812202,0.509536785 L0,0.509536785 L0,21.4904632 L3.72378456,21.4904632 Z M40.4551954,22 C47.4559104,22 51.8648713,17.653951 51.8648713,11 C51.8648713,4.31607629 47.4559104,0 40.4551954,0 C33.4544805,0 29.0157293,4.34604905 29.0157293,11 C29.0157293,17.6839237 33.4544805,22 40.4551954,22 Z M40.4254051,18.5231608 C35.6887512,18.5231608 32.9480458,15.6457766 32.9480458,11 C32.9480458,6.35422343 35.7483317,3.47683924 40.4849857,3.47683924 C45.2216397,3.47683924 47.9623451,6.35422343 47.9623451,11 C47.9623451,15.6457766 45.1620591,18.5231608 40.4254051,18.5231608 Z M60.8317445,21.4904632 L60.8317445,5.90463215 L61.0402765,5.90463215 L72.6882745,21.4904632 L76.7993327,21.4904632 L76.7993327,0.509536785 L73.0755481,0.509536785 L73.0755481,15.7057221 L72.8968065,15.7057221 L61.4871306,0.509536785 L57.1377502,0.509536785 L57.1377502,21.4904632 L60.8317445,21.4904632 Z M93.0946139,21.4904632 L93.0946139,4.04632153 L101.048618,4.04632153 L100.899666,0.509536785 L81.4764061,0.509536785 L81.3274547,4.04632153 L89.2814585,4.04632153 L89.2814585,21.4904632 L93.0946139,21.4904632 Z M109.389895,21.4904632 L109.389895,14.8964578 L115.675643,14.8964578 L120.501668,21.4904632 L125,21.4904632 L119.459009,14.2070845 C122.586988,13.3378747 124.225453,11 124.225453,7.55313351 C124.225453,3.02724796 121.663489,0.509536785 116.450191,0.509536785 L105.57674,0.509536785 L105.57674,21.4904632 L109.389895,21.4904632 Z M116.33103,11.5095368 L109.389895,11.5095368 L109.389895,3.98637602 L116.33103,3.98637602 C119.280267,3.98637602 120.352717,5.57493188 120.352717,7.73297003 C120.352717,9.86103542 119.280267,11.5095368 116.33103,11.5095368 Z" id="MONTRO" fill="#757575" fill-rule="nonzero"></path>
                <path d="M139.514993,0 C146.56193,0 151,4.31607629 151,11 C151,17.653951 146.56193,22 139.514993,22 C132.468057,22 128,17.6839237 128,11 C128,4.34604905 132.468057,0 139.514993,0 Z M145.420122,5.85084224 L139.619948,15.8750418 L139.320078,15.8750418 L133.592632,5.90212895 C132.529508,7.1756052 131.958279,8.90861897 131.958279,11 C131.958279,15.6457766 134.71708,18.5231608 139.485007,18.5231608 C144.252934,18.5231608 147.071708,15.6457766 147.071708,11 C147.071708,8.8804061 146.497447,7.12891347 145.420122,5.85084224 Z M139.54498,3.47683924 C138.417616,3.47683924 137.399224,3.63770639 136.501299,3.94478075 L139.559974,9.28103638 L142.560193,3.93793467 C141.672238,3.63531585 140.663937,3.47683924 139.54498,3.47683924 Z" id="Path-7" fill="#757575"></path>
            </g>
        </g>
    </g>
</svg>