<svg xmlns="http://www.w3.org/2000/svg" xmlns:xlink="http://www.w3.org/1999/xlink" height="274" viewBox="0 0 306 274"
     width="306">
    <linearGradient id="a" x1="1.935%" x2="100%" y1="50%" y2="50%">
        <stop offset="0" stop-color="#ecff33"/>
        <stop offset="1" stop-color="#ecffa1"/>
    </linearGradient>
    <g fill="none" fill-rule="evenodd" transform="translate(0 37)">
        <path d="m6.2 17.733 284.756-6.844 8.044 184.8h-286.365z" fill="url(#a)"
              transform="matrix(.99756405 -.06975647 .06975647 .99756405 -6.83335 10.896445)"/>
        <path d="m6.2 15.333 284.756-6.844 8.044 184.8h-286.365z" fill="url(#a)" transform="matrix(-1 0 0 1 305.2 0)"/>
        <g fill="#000" fill-rule="nonzero" transform="translate(42 21)">
            <path d="m165.473589 98.1856242 6.490927-93.92143078c.075804-1.09685467.948392-1.97008097 2.045191-2.04668718l31.624751-2.20883901c1.214278-.08481151 2.267397.83080141 2.352209 2.04507871.014165.20280423.000202.4065931-.041491.60557017l-19.876 94.85631469c-.202149.9647402-1.020291 1.6779596-2.003587 1.7466382l-18.239679 1.273955c-1.214278.084812-2.267397-.8308013-2.352209-2.0450786-.007104-.1017152-.007141-.2038008-.000112-.3055212zm-9.218437 34.3137018c-.742169-10.601142 7.466917-19.817491 17.679927-20.530822 9.612244-.671369 16.124013 6.1098 16.698144 14.310684.756173 10.801164-7.867427 19.845465-17.479672 20.516835-9.411989.657382-16.310264-5.895792-16.898399-14.296697zm-76.4641874-52.3826383c1.5052991.0304918 3.1151333.523558 4.8295026 1.4791986 1.0976135.6118425 1.9301631 1.2688183 2.4976486 1.9709273-2.024651 3.0811244-3.353238 6.9278116-3.9825263 11.1843378l-8.1296015 56.7586616c-.1472435 1.028014-.9921409 1.813767-2.0281208 1.886148l-10.585308.740212c.4590087-.304699.798042-.777413.9280661-1.335342l.0354782-.189018 8.1296015-56.7586616c.9973711-6.7462498 3.7513583-12.4629968 8.2431168-15.7367853zm65.7509044-2.1999982c.251963 3.6032342.131598 7.6348132-.691765 13.1236446l-7.973254 56.1405939c-.146157 1.029109-.991456 1.816216-2.028359 1.888723l-10.585902.74053c.459875-.305109.799371-.778824.929046-1.337861l.035331-.189392 7.973254-56.140594c.823363-5.4888314.943727-9.5204104.691764-13.1236446-1.075025-15.3735776-9.528395-28.1042895-24.924454-30.603634 1.035438-.1574297 2.070128-.2715889 3.097322-.3433971 20.824483-1.4557824 32.217203 11.8288602 33.477017 29.8450312zm-51.9698646-.2328374c-.4424372.2191861-.8714264.4589927-1.2869548.7184551l-.9188877-1.1338301c.7706633.0884755 1.5063045.2278064 2.2058425.415375zm1.5151344-69.26440098c.0107906.15431205.0053055.30933136-.0163643.46249488l-5.4377493 38.4195765c-2.0567482.23167-4.0861171.5379247-6.0881066.918764-2.0265852.3855182-4.0086528 1.0073276-5.9462026 1.8654284l5.8199866-40.92658639c.0218517-.15366451.0274104-.30920742.0165835-.46403977-.0464781-.66466753-.3830783-1.23982419-.8774114-1.6103859l10.1768898-.71013954c1.2142704-.08491006 2.2674643.8306174 2.3523743 2.04488782z"/>
            <path d="m108.029311 153.519692h-25.9971959c-1.2172356 0-2.2039999-.986764-2.2039999-2.204 0-.156398.016647-.312351.0496598-.465225l10.8638285-50.307629c1.0035346-4.4146874 1.2042157-6.622037 1.2041805-8.4280534-.0001602-8.2274084-5.0183721-13.8462239-14.0509566-13.8463998-9.4340327-.0001836-15.4556112 7.4244335-17.6633809 17.4578153l-12.0690823 56.0533079c-.2185954 1.015239-1.1162461 1.74014-2.1547514 1.740079l-26.0116176-.001536c-1.2172356-.000072-2.2039417-.986894-2.2038698-2.20413.000009-.153126.0159759-.305834.0476419-.45565l29.7762915-140.87555413c.2153953-1.01906368 1.1147793-1.74821932 2.1563579-1.74821932h26.1996608c1.2172355 0 2.2039999.98676437 2.2039999 2.20399995 0 .1546888-.0162853.3089479-.0485865.4602267l-10.8713612 50.9146369c6.2223025-7.4246132 16.0577209-10.6351177 25.0903054-10.6349419 20.8753069.0004064 31.3135849 14.0474043 31.3135849 32.1075689 0 3.6120329-.4013 7.625395-1.605539 13.043421l-11.870001 55.4476529c-.217588 1.016406-1.115734 1.74263-2.155169 1.74263z"
                  transform="matrix(.99756405 -.06975647 .06975647 .99756405 -5.470035 5.112681)"/>
        </g>
    </g>
</svg>